<svg width="90" height="19" viewBox="0 0 90 19" fill="none" xmlns="http://www.w3.org/2000/svg">
<path d="M8.53125 12.2344L12.3398 12.1875C12.3086 13.4141 12 14.4883 11.4141 15.4102C10.8359 16.3242 10.0625 17.0312 9.09375 17.5312C8.13281 18.0234 7.04297 18.2578 5.82422 18.2344C4.76172 18.2109 3.88672 17.9805 3.19922 17.543C2.51172 17.0977 1.98047 16.5117 1.60547 15.7852C1.23047 15.0508 0.992188 14.2383 0.890625 13.3477C0.796875 12.457 0.804688 11.5586 0.914062 10.6523L1.28906 8.27344C1.42969 7.32812 1.66797 6.40234 2.00391 5.49609C2.34766 4.58203 2.80469 3.75781 3.375 3.02344C3.94531 2.28906 4.63672 1.71094 5.44922 1.28906C6.26953 0.867188 7.21484 0.667969 8.28516 0.691406C9.52734 0.714844 10.5352 1 11.3086 1.54688C12.082 2.09375 12.6484 2.82812 13.0078 3.75C13.3672 4.67188 13.543 5.70703 13.5352 6.85547L9.60938 6.83203C9.67969 6.33203 9.69922 5.86719 9.66797 5.4375C9.64453 5 9.51172 4.64062 9.26953 4.35938C9.03516 4.07812 8.61719 3.92578 8.01562 3.90234C7.44531 3.87891 6.98828 4.00781 6.64453 4.28906C6.30078 4.57031 6.03906 4.94141 5.85938 5.40234C5.67969 5.85547 5.54688 6.33594 5.46094 6.84375C5.38281 7.35156 5.31641 7.82031 5.26172 8.25L4.91016 10.6641C4.87109 11 4.80859 11.4102 4.72266 11.8945C4.64453 12.3789 4.60938 12.8555 4.61719 13.3242C4.63281 13.793 4.74219 14.1914 4.94531 14.5195C5.15625 14.8398 5.53125 15.0156 6.07031 15.0469C6.66406 15.0625 7.13672 14.9492 7.48828 14.707C7.83984 14.457 8.09375 14.1172 8.25 13.6875C8.41406 13.25 8.50781 12.7656 8.53125 12.2344ZM20.8486 4.71094L15.5166 18H11.2041L19.2666 0.9375H21.9853L20.8486 4.71094ZM20.9892 18L20.2392 4.3125L20.333 0.9375H22.9228L25.0791 18H20.9892ZM22.1962 11.6367L21.6337 14.8125H14.4384L15.0009 11.6367H22.1962ZM28.3847 0.9375L33.8456 0.949219C34.8534 0.972656 35.7206 1.19141 36.4472 1.60547C37.1816 2.01172 37.7323 2.58984 38.0995 3.33984C38.4667 4.08203 38.6152 4.96484 38.5448 5.98828C38.4823 6.85547 38.3183 7.61328 38.0527 8.26172C37.787 8.91016 37.4003 9.47656 36.8925 9.96094C36.3925 10.4375 35.7597 10.8594 34.9941 11.2266L33.5878 11.9766H28.9472L29.4745 8.80078L32.4277 8.83594C32.912 8.82031 33.3027 8.69922 33.5995 8.47266C33.8964 8.23828 34.123 7.9375 34.2792 7.57031C34.4355 7.19531 34.537 6.79297 34.5839 6.36328C34.6308 6.07422 34.6659 5.76172 34.6894 5.42578C34.7128 5.08203 34.6581 4.78906 34.5253 4.54688C34.3925 4.29688 34.123 4.15625 33.7167 4.125L31.7597 4.11328L29.3339 18H25.4433L28.3847 0.9375ZM32.8495 18L31.2323 10.4531L35.1933 10.4297L37.0331 17.8008V18H32.8495ZM47.2762 0.9375L44.3114 18H40.3856L43.3505 0.9375H47.2762ZM51.2841 0.9375L50.7333 4.11328H38.8856L39.4481 0.9375H51.2841ZM59.2889 0.9375H63.203L61.2225 12.5508C61.0662 13.7305 60.7186 14.7539 60.1795 15.6211C59.6483 16.4805 58.9373 17.1406 58.0467 17.6016C57.1561 18.0547 56.1014 18.2734 54.8827 18.2578C53.7342 18.2344 52.7733 17.9883 51.9998 17.5195C51.2264 17.043 50.6639 16.3828 50.3123 15.5391C49.9686 14.6875 49.8592 13.6914 49.9842 12.5508L51.953 0.9375H55.8905L53.9334 12.5625C53.8787 12.9688 53.8475 13.3633 53.8397 13.7461C53.8319 14.1211 53.9178 14.4336 54.0975 14.6836C54.2772 14.9258 54.6248 15.0547 55.1405 15.0703C55.6873 15.1016 56.1053 15.0039 56.3944 14.7773C56.6834 14.5508 56.8944 14.2422 57.0272 13.8516C57.16 13.4531 57.2577 13.0234 57.3202 12.5625L59.2889 0.9375ZM76.4109 0.9375L73.4578 18H69.6492L67.3055 7.23047L65.4305 18H61.5281L64.4695 0.9375H68.3016L70.6453 11.707L72.5086 0.9375H76.4109ZM89.6306 0.9375L86.6775 18H82.8689L80.5252 7.23047L78.6502 18H74.7478L77.6892 0.9375H81.5212L83.865 11.707L85.7283 0.9375H89.6306Z" fill="white"/>
</svg>
