<svg width="27" height="19" viewBox="0 0 27 19" fill="none" xmlns="http://www.w3.org/2000/svg">
<path d="M8.53125 12.2344L12.3398 12.1875C12.3086 13.4141 12 14.4883 11.4141 15.4102C10.8359 16.3242 10.0625 17.0312 9.09375 17.5312C8.13281 18.0234 7.04297 18.2578 5.82422 18.2344C4.76172 18.2109 3.88672 17.9805 3.19922 17.543C2.51172 17.0977 1.98047 16.5117 1.60547 15.7852C1.23047 15.0508 0.992188 14.2383 0.890625 13.3477C0.796875 12.457 0.804688 11.5586 0.914062 10.6523L1.28906 8.27344C1.42969 7.32812 1.66797 6.40234 2.00391 5.49609C2.34766 4.58203 2.80469 3.75781 3.375 3.02344C3.94531 2.28906 4.63672 1.71094 5.44922 1.28906C6.26953 0.867188 7.21484 0.667969 8.28516 0.691406C9.52734 0.714844 10.5352 1 11.3086 1.54688C12.082 2.09375 12.6484 2.82812 13.0078 3.75C13.3672 4.67188 13.543 5.70703 13.5352 6.85547L9.60938 6.83203C9.67969 6.33203 9.69922 5.86719 9.66797 5.4375C9.64453 5 9.51172 4.64062 9.26953 4.35938C9.03516 4.07812 8.61719 3.92578 8.01562 3.90234C7.44531 3.87891 6.98828 4.00781 6.64453 4.28906C6.30078 4.57031 6.03906 4.94141 5.85938 5.40234C5.67969 5.85547 5.54688 6.33594 5.46094 6.84375C5.38281 7.35156 5.31641 7.82031 5.26172 8.25L4.91016 10.6641C4.87109 11 4.80859 11.4102 4.72266 11.8945C4.64453 12.3789 4.60938 12.8555 4.61719 13.3242C4.63281 13.793 4.74219 14.1914 4.94531 14.5195C5.15625 14.8398 5.53125 15.0156 6.07031 15.0469C6.66406 15.0625 7.13672 14.9492 7.48828 14.707C7.83984 14.457 8.09375 14.1172 8.25 13.6875C8.41406 13.25 8.50781 12.7656 8.53125 12.2344Z" fill="#595959"/>
<path d="M22.1259 0.9375L19.1611 18H15.2353L18.2002 0.9375H22.1259ZM26.1337 0.9375L25.583 4.11328H13.7353L14.2978 0.9375H26.1337Z" fill="#5766F5"/>
</svg>
