<svg width="174" height="86" viewBox="0 0 174 86" fill="none" xmlns="http://www.w3.org/2000/svg">
<g filter="url(#filter0_d_224_2586)">
<path d="M56.308 43.4402C53.7929 43.4402 51.6288 43.021 49.8158 42.1826C48.0133 41.3337 46.6824 40.1705 45.823 38.6928C44.9637 37.2047 44.6964 35.486 45.0213 33.5367H52.7397C52.6349 34.2389 52.7344 34.8624 53.0383 35.4074C53.3527 35.9419 53.8296 36.361 54.4688 36.665C55.1186 36.9689 55.8731 37.1208 56.7325 37.1208C57.7176 37.1208 58.6188 36.927 59.4363 36.5392C60.2642 36.1515 60.9454 35.6327 61.4798 34.983C62.0143 34.3332 62.3444 33.6206 62.4702 32.8451C62.5959 32.0905 62.4806 31.4565 62.1243 30.943C61.768 30.4295 61.2231 30.0417 60.4895 29.7797C59.7664 29.5177 58.8808 29.3867 57.8329 29.3867H54.5474L55.4592 23.8534H58.4145C59.3786 23.8534 60.2642 23.6753 61.0711 23.3189C61.8885 22.9626 62.5645 22.4701 63.099 21.8413C63.6334 21.2125 63.9688 20.4894 64.105 19.672C64.2098 19.0222 64.1574 18.4563 63.9478 17.9742C63.7382 17.4817 63.3714 17.1044 62.8474 16.8424C62.3339 16.5699 61.6632 16.4337 60.8353 16.4337C59.955 16.4337 59.1062 16.5857 58.2887 16.8896C57.4818 17.1935 56.8006 17.6232 56.2452 18.1786C55.6897 18.734 55.3544 19.3785 55.2391 20.1121H47.8508C48.1757 18.2048 48.9722 16.5228 50.2402 15.0661C51.5083 13.5989 53.0907 12.4514 54.9876 11.6235C56.8949 10.7851 58.9699 10.3659 61.2126 10.3659C63.581 10.3659 65.5827 10.8113 67.2175 11.7021C68.8628 12.5824 70.0628 13.7561 70.8173 15.2233C71.5824 16.68 71.8181 18.2677 71.5247 19.9864C71.2208 21.8622 70.3929 23.3137 69.041 24.3407C67.6891 25.3573 66.0071 25.9913 63.995 26.2428V26.4786C66.2167 26.7511 67.9144 27.6052 69.0882 29.0409C70.2724 30.4662 70.6968 32.2058 70.3615 34.2598C70.0785 36.0309 69.2873 37.6081 67.9878 38.9915C66.6883 40.3748 65.0272 41.4647 63.0046 42.2612C60.9925 43.0472 58.7603 43.4402 56.308 43.4402ZM83.4599 43.4402C81.1229 43.4402 79.1108 43.0157 77.4235 42.1669C75.7363 41.318 74.4892 40.1495 73.6822 38.6614C72.8753 37.1732 72.6081 35.465 72.8805 33.5367H80.426C80.2898 34.7105 80.6094 35.6589 81.3849 36.382C82.1709 37.1051 83.1874 37.4667 84.4345 37.4667C85.4301 37.4667 86.3366 37.2518 87.154 36.8222C87.9819 36.3925 88.6736 35.7899 89.229 35.0144C89.7845 34.2389 90.146 33.3376 90.3137 32.3106C90.4918 31.2731 90.429 30.3666 90.125 29.5911C89.8211 28.8051 89.3233 28.1973 88.6317 27.7676C87.94 27.3379 87.1016 27.1231 86.1165 27.1231C85.1733 27.1231 84.2511 27.3327 83.3499 27.7519C82.4591 28.1606 81.736 28.7265 81.1805 29.4496L74.5154 28.1606L78.8069 10.8061H99.4625L98.4408 17.0782H84.183L82.1866 24.6708H82.3752C83.0564 23.78 84.0415 23.0465 85.3305 22.4701C86.6196 21.8832 88.0238 21.5898 89.5434 21.5898C91.4717 21.5898 93.1118 22.0404 94.4637 22.9417C95.8261 23.8324 96.8112 25.0743 97.419 26.6672C98.0268 28.2497 98.1578 30.0574 97.812 32.0905C97.4661 34.3018 96.633 36.2615 95.3125 37.9697C94.0026 39.6674 92.3258 41.0036 90.2822 41.9782C88.2492 42.9528 85.975 43.4402 83.4599 43.4402ZM103.624 10.8061H113.261L118.134 30.7386H118.511L129.986 10.8061H139.622L134.278 43H126.701L129.986 23.2246H129.719L118.747 42.7956H113.921L109.456 23.1146H109.189L105.857 43H98.2796L103.624 10.8061ZM147.431 38.2998L151.188 15.5377H157.539L153.782 38.2998H147.431ZM140.562 30.0784L141.631 23.7434H164.393L163.324 30.0784H140.562Z" fill="#5766F5"/>
</g>
<path d="M34.5707 80H31.2096L31.2312 77.8493H34.5707C35.5434 77.8493 36.3575 77.6368 37.0131 77.2117C37.676 76.7866 38.1731 76.1778 38.5046 75.3853C38.8432 74.5928 39.0125 73.6489 39.0125 72.5538V71.7C39.0125 70.8498 38.9152 70.0969 38.7207 69.4413C38.5334 68.7856 38.2524 68.2345 37.8777 67.7878C37.5103 67.3411 37.0564 67.0024 36.516 66.7719C35.9829 66.5413 35.3668 66.426 34.668 66.426H31.1448V64.2646H34.668C35.7127 64.2646 36.6673 64.4411 37.5319 64.7941C38.3965 65.14 39.1422 65.6407 39.769 66.2964C40.403 66.952 40.8894 67.7373 41.228 68.6523C41.5666 69.5674 41.7359 70.5905 41.7359 71.7216V72.5538C41.7359 73.6849 41.5666 74.708 41.228 75.623C40.8894 76.5381 40.403 77.3234 39.769 77.979C39.135 78.6275 38.3785 79.1282 37.4995 79.4813C36.6277 79.8271 35.6514 80 34.5707 80ZM32.7118 64.2646V80H29.9992V64.2646H32.7118ZM43.0112 74.2829V74.0344C43.0112 73.1914 43.1337 72.4097 43.3786 71.6892C43.6236 70.9615 43.9766 70.3311 44.4378 69.7979C44.9061 69.2576 45.4753 68.8397 46.1453 68.5443C46.8226 68.2417 47.5863 68.0904 48.4365 68.0904C49.2938 68.0904 50.0576 68.2417 50.7276 68.5443C51.4049 68.8397 51.9776 69.2576 52.446 69.7979C52.9143 70.3311 53.2709 70.9615 53.5159 71.6892C53.7608 72.4097 53.8833 73.1914 53.8833 74.0344V74.2829C53.8833 75.1259 53.7608 75.9076 53.5159 76.6281C53.2709 77.3486 52.9143 77.979 52.446 78.5194C51.9776 79.0526 51.4085 79.4704 50.7384 79.773C50.0684 80.0684 49.3082 80.2161 48.4581 80.2161C47.6007 80.2161 46.8334 80.0684 46.1561 79.773C45.4861 79.4704 44.9169 79.0526 44.4486 78.5194C43.9803 77.979 43.6236 77.3486 43.3786 76.6281C43.1337 75.9076 43.0112 75.1259 43.0112 74.2829ZM45.6158 74.0344V74.2829C45.6158 74.8089 45.6698 75.306 45.7779 75.7743C45.8859 76.2427 46.0553 76.6533 46.2858 77.0064C46.5164 77.3594 46.8118 77.6368 47.172 77.8385C47.5322 78.0403 47.9609 78.1411 48.4581 78.1411C48.9408 78.1411 49.3587 78.0403 49.7117 77.8385C50.072 77.6368 50.3674 77.3594 50.5979 77.0064C50.8285 76.6533 50.9978 76.2427 51.1059 75.7743C51.2211 75.306 51.2788 74.8089 51.2788 74.2829V74.0344C51.2788 73.5156 51.2211 73.0257 51.1059 72.5646C50.9978 72.0963 50.8249 71.682 50.5871 71.3217C50.3566 70.9615 50.0612 70.6805 49.7009 70.4788C49.3479 70.2698 48.9264 70.1654 48.4365 70.1654C47.9465 70.1654 47.5214 70.2698 47.1612 70.4788C46.8082 70.6805 46.5164 70.9615 46.2858 71.3217C46.0553 71.682 45.8859 72.0963 45.7779 72.5646C45.6698 73.0257 45.6158 73.5156 45.6158 74.0344ZM58.5521 77.4063L61.2539 68.3065H62.9182L62.4643 71.0299L59.7409 80H58.2495L58.5521 77.4063ZM56.9634 68.3065L59.0708 77.4495L59.2437 80H57.5794L54.4129 68.3065H56.9634ZM65.4471 77.3414L67.4897 68.3065H70.0294L66.8737 80H65.2094L65.4471 77.3414ZM63.1992 68.3065L65.8686 77.2982L66.2036 80H64.7122L61.9564 71.0191L61.5025 68.3065H63.1992ZM73.6931 70.803V80H71.0885V68.3065H73.5418L73.6931 70.803ZM73.2284 73.721L72.3854 73.7102C72.3926 72.8816 72.5079 72.1215 72.7312 71.4298C72.9618 70.7382 73.2788 70.1438 73.6823 69.6466C74.093 69.1495 74.5829 68.7676 75.1521 68.501C75.7213 68.2273 76.3553 68.0904 77.0542 68.0904C77.6161 68.0904 78.1241 68.1696 78.578 68.3281C79.0391 68.4794 79.4318 68.728 79.756 69.0738C80.0874 69.4197 80.3396 69.87 80.5125 70.4247C80.6854 70.9723 80.7719 71.646 80.7719 72.4457V80H78.1565V72.4349C78.1565 71.8729 78.0737 71.4298 77.9079 71.1056C77.7494 70.7742 77.5153 70.54 77.2055 70.4031C76.9029 70.259 76.5246 70.187 76.0707 70.187C75.624 70.187 75.2241 70.2806 74.8711 70.468C74.5181 70.6553 74.2191 70.9111 73.9741 71.2353C73.7363 71.5595 73.5526 71.9342 73.4229 72.3592C73.2932 72.7843 73.2284 73.2382 73.2284 73.721ZM85.5271 63.4V80H82.9117V63.4H85.5271ZM87.1914 74.2829V74.0344C87.1914 73.1914 87.3139 72.4097 87.5589 71.6892C87.8038 70.9615 88.1569 70.3311 88.618 69.7979C89.0863 69.2576 89.6555 68.8397 90.3255 68.5443C91.0028 68.2417 91.7665 68.0904 92.6167 68.0904C93.474 68.0904 94.2378 68.2417 94.9078 68.5443C95.5851 68.8397 96.1579 69.2576 96.6262 69.7979C97.0945 70.3311 97.4511 70.9615 97.6961 71.6892C97.9411 72.4097 98.0635 73.1914 98.0635 74.0344V74.2829C98.0635 75.1259 97.9411 75.9076 97.6961 76.6281C97.4511 77.3486 97.0945 77.979 96.6262 78.5194C96.1579 79.0526 95.5887 79.4704 94.9186 79.773C94.2486 80.0684 93.4885 80.2161 92.6383 80.2161C91.7809 80.2161 91.0136 80.0684 90.3363 79.773C89.6663 79.4704 89.0971 79.0526 88.6288 78.5194C88.1605 77.979 87.8038 77.3486 87.5589 76.6281C87.3139 75.9076 87.1914 75.1259 87.1914 74.2829ZM89.796 74.0344V74.2829C89.796 74.8089 89.85 75.306 89.9581 75.7743C90.0661 76.2427 90.2355 76.6533 90.466 77.0064C90.6966 77.3594 90.992 77.6368 91.3522 77.8385C91.7125 78.0403 92.1411 78.1411 92.6383 78.1411C93.121 78.1411 93.5389 78.0403 93.8919 77.8385C94.2522 77.6368 94.5476 77.3594 94.7781 77.0064C95.0087 76.6533 95.178 76.2427 95.2861 75.7743C95.4013 75.306 95.459 74.8089 95.459 74.2829V74.0344C95.459 73.5156 95.4013 73.0257 95.2861 72.5646C95.178 72.0963 95.0051 71.682 94.7673 71.3217C94.5368 70.9615 94.2414 70.6805 93.8811 70.4788C93.5281 70.2698 93.1066 70.1654 92.6167 70.1654C92.1267 70.1654 91.7016 70.2698 91.3414 70.4788C90.9884 70.6805 90.6966 70.9615 90.466 71.3217C90.2355 71.682 90.0661 72.0963 89.9581 72.5646C89.85 73.0257 89.796 73.5156 89.796 74.0344ZM106.147 77.6548V72.0783C106.147 71.6604 106.072 71.3001 105.92 70.9975C105.769 70.6949 105.539 70.4608 105.229 70.2951C104.926 70.1293 104.544 70.0465 104.083 70.0465C103.658 70.0465 103.291 70.1185 102.981 70.2626C102.671 70.4067 102.43 70.6013 102.257 70.8462C102.084 71.0912 101.997 71.3686 101.997 71.6784H99.4036C99.4036 71.2173 99.5153 70.7706 99.7387 70.3383C99.962 69.906 100.286 69.5205 100.711 69.1819C101.136 68.8433 101.644 68.5767 102.235 68.3822C102.826 68.1876 103.489 68.0904 104.224 68.0904C105.103 68.0904 105.881 68.2381 106.558 68.5335C107.243 68.8289 107.779 69.2756 108.168 69.8736C108.565 70.4644 108.763 71.2065 108.763 72.0999V77.2982C108.763 77.8313 108.799 78.3105 108.871 78.7355C108.95 79.1534 109.062 79.5173 109.206 79.8271V80H106.536C106.414 79.719 106.317 79.3624 106.245 78.9301C106.18 78.4906 106.147 78.0655 106.147 77.6548ZM106.526 72.8888L106.547 74.4991H104.678C104.195 74.4991 103.77 74.5459 103.402 74.6396C103.035 74.726 102.729 74.8557 102.484 75.0286C102.239 75.2016 102.055 75.4105 101.933 75.6555C101.81 75.9004 101.749 76.1778 101.749 76.4876C101.749 76.7974 101.821 77.082 101.965 77.3414C102.109 77.5936 102.318 77.7917 102.592 77.9358C102.873 78.0799 103.211 78.152 103.608 78.152C104.141 78.152 104.606 78.0439 105.002 77.8277C105.405 77.6044 105.722 77.3342 105.953 77.0172C106.183 76.693 106.306 76.3868 106.32 76.0986L107.163 77.2549C107.077 77.5503 106.929 77.8674 106.72 78.206C106.511 78.5446 106.237 78.8688 105.899 79.1786C105.567 79.4813 105.168 79.7298 104.699 79.9243C104.238 80.1189 103.705 80.2161 103.1 80.2161C102.336 80.2161 101.655 80.0648 101.057 79.7622C100.459 79.4524 99.9908 79.0382 99.6522 78.5194C99.3136 77.9934 99.1443 77.399 99.1443 76.7362C99.1443 76.1166 99.2595 75.569 99.4901 75.0935C99.7279 74.6108 100.074 74.2073 100.528 73.8831C100.989 73.5589 101.551 73.3139 102.214 73.1482C102.876 72.9753 103.633 72.8888 104.483 72.8888H106.526ZM117.927 77.5792V63.4H120.543V80H118.176L117.927 77.5792ZM110.319 74.2829V74.056C110.319 73.1698 110.423 72.3628 110.632 71.6352C110.841 70.9003 111.144 70.2698 111.54 69.7439C111.936 69.2107 112.419 68.8036 112.988 68.5227C113.558 68.2345 114.199 68.0904 114.912 68.0904C115.618 68.0904 116.238 68.2273 116.771 68.501C117.304 68.7748 117.758 69.1675 118.133 69.679C118.507 70.1834 118.806 70.7886 119.03 71.4947C119.253 72.1935 119.412 72.9717 119.505 73.829V74.5531C119.412 75.3889 119.253 76.1526 119.03 76.8443C118.806 77.5359 118.507 78.1339 118.133 78.6383C117.758 79.1426 117.301 79.5317 116.76 79.8055C116.227 80.0793 115.604 80.2161 114.89 80.2161C114.184 80.2161 113.547 80.0684 112.978 79.773C112.416 79.4776 111.936 79.0634 111.54 78.5302C111.144 77.997 110.841 77.3702 110.632 76.6497C110.423 75.922 110.319 75.1331 110.319 74.2829ZM112.924 74.056V74.2829C112.924 74.8161 112.97 75.3132 113.064 75.7743C113.165 76.2355 113.32 76.6425 113.529 76.9956C113.738 77.3414 114.008 77.6152 114.339 77.8169C114.678 78.0115 115.081 78.1087 115.55 78.1087C116.141 78.1087 116.627 77.979 117.009 77.7197C117.391 77.4603 117.69 77.1109 117.906 76.6714C118.129 76.2247 118.28 75.7275 118.36 75.1799V73.2238C118.316 72.7987 118.226 72.4025 118.089 72.035C117.96 71.6676 117.783 71.347 117.56 71.0732C117.337 70.7922 117.059 70.576 116.728 70.4247C116.404 70.2662 116.018 70.187 115.571 70.187C115.096 70.187 114.692 70.2878 114.361 70.4896C114.03 70.6913 113.756 70.9687 113.54 71.3217C113.331 71.6748 113.176 72.0855 113.075 72.5538C112.974 73.0221 112.924 73.5228 112.924 74.056ZM129.135 76.8335C129.135 76.5741 129.07 76.3399 128.94 76.131C128.81 75.9148 128.562 75.7203 128.194 75.5474C127.834 75.3745 127.301 75.216 126.595 75.0719C125.975 74.935 125.406 74.7729 124.887 74.5855C124.376 74.391 123.936 74.1569 123.569 73.8831C123.201 73.6093 122.917 73.2851 122.715 72.9104C122.513 72.5358 122.412 72.1035 122.412 71.6135C122.412 71.138 122.517 70.6877 122.726 70.2626C122.935 69.8375 123.234 69.4629 123.623 69.1387C124.012 68.8145 124.484 68.5587 125.039 68.3714C125.601 68.184 126.227 68.0904 126.919 68.0904C127.899 68.0904 128.738 68.2561 129.437 68.5875C130.143 68.9117 130.684 69.3548 131.058 69.9168C131.433 70.4716 131.62 71.0984 131.62 71.7973H129.016C129.016 71.4875 128.936 71.1993 128.778 70.9327C128.627 70.6589 128.396 70.4391 128.086 70.2734C127.776 70.1005 127.387 70.0141 126.919 70.0141C126.472 70.0141 126.101 70.0861 125.806 70.2302C125.518 70.3671 125.302 70.5472 125.157 70.7706C125.021 70.9939 124.952 71.2389 124.952 71.5055C124.952 71.7 124.988 71.8765 125.06 72.035C125.139 72.1863 125.269 72.3268 125.449 72.4565C125.629 72.579 125.874 72.6943 126.184 72.8023C126.501 72.9104 126.897 73.0149 127.373 73.1158C128.266 73.3031 129.034 73.5444 129.675 73.8398C130.323 74.128 130.82 74.5027 131.166 74.9638C131.512 75.4177 131.685 75.9941 131.685 76.693C131.685 77.2117 131.573 77.6872 131.35 78.1195C131.134 78.5446 130.817 78.9157 130.399 79.2327C129.981 79.5425 129.48 79.7839 128.897 79.9568C128.32 80.1297 127.672 80.2161 126.951 80.2161C125.892 80.2161 124.995 80.0288 124.26 79.6542C123.526 79.2723 122.967 78.786 122.585 78.1952C122.211 77.5972 122.023 76.9776 122.023 76.3363H124.541C124.57 76.8191 124.704 77.2045 124.941 77.4927C125.186 77.7737 125.489 77.979 125.849 78.1087C126.217 78.2312 126.595 78.2924 126.984 78.2924C127.452 78.2924 127.845 78.2312 128.162 78.1087C128.479 77.979 128.72 77.8061 128.886 77.59C129.052 77.3666 129.135 77.1145 129.135 76.8335Z" fill="black"/>
<path d="M35.2 32.133V39.5108C35.2 40.4891 34.8114 41.4274 34.1195 42.1192C33.4277 42.811 32.4895 43.1997 31.5111 43.1997H5.68889C4.71053 43.1997 3.77225 42.811 3.08045 42.1192C2.38865 41.4274 2 40.4891 2 39.5108V32.133" stroke="#595959" stroke-width="3.68889" stroke-linecap="round" stroke-linejoin="round"/>
<path d="M9.37598 22.911L18.5982 32.1332L27.8204 22.911" stroke="#595959" stroke-width="3.68889" stroke-linecap="round" stroke-linejoin="round"/>
<path d="M18.6 32.1333V10" stroke="#595959" stroke-width="3.68889" stroke-linecap="round" stroke-linejoin="round"/>
<defs>
<filter id="filter0_d_224_2586" x="44.534" y="10.3659" width="119.859" height="35.8409" filterUnits="userSpaceOnUse" color-interpolation-filters="sRGB">
<feFlood flood-opacity="0" result="BackgroundImageFix"/>
<feColorMatrix in="SourceAlpha" type="matrix" values="0 0 0 0 0 0 0 0 0 0 0 0 0 0 0 0 0 0 127 0" result="hardAlpha"/>
<feOffset dy="2.76667"/>
<feColorMatrix type="matrix" values="0 0 0 0 1 0 0 0 0 1 0 0 0 0 1 0 0 0 1 0"/>
<feBlend mode="normal" in2="BackgroundImageFix" result="effect1_dropShadow_224_2586"/>
<feBlend mode="normal" in="SourceGraphic" in2="effect1_dropShadow_224_2586" result="shape"/>
</filter>
</defs>
</svg>
