<svg width="25" height="26" viewBox="0 0 25 26" fill="none" xmlns="http://www.w3.org/2000/svg">
<rect x="0.25" width="24.375" height="25.3219" rx="6.08929" fill="url(#paint0_radial_224_2491)"/>
<rect x="0.25" width="24.375" height="25.3219" rx="6.08929" fill="white"/>
<path d="M18.5312 7.68702C18.5312 8.43621 17.9466 9.04355 17.2254 9.04355C16.5042 9.04355 15.9196 8.43621 15.9196 7.68702C15.9196 6.93783 16.5042 6.33049 17.2254 6.33049C17.9466 6.33049 18.5312 6.93783 18.5312 7.68702Z" fill="#5766F5"/>
<path fill-rule="evenodd" clip-rule="evenodd" d="M12.4375 17.1827C14.8414 17.1827 16.7902 15.1583 16.7902 12.661C16.7902 10.1637 14.8414 8.1392 12.4375 8.1392C10.0336 8.1392 8.0848 10.1637 8.0848 12.661C8.0848 15.1583 10.0336 17.1827 12.4375 17.1827ZM12.4375 15.374C13.8798 15.374 15.0491 14.1593 15.0491 12.661C15.0491 11.1626 13.8798 9.9479 12.4375 9.9479C10.9951 9.9479 9.82587 11.1626 9.82587 12.661C9.82587 14.1593 10.9951 15.374 12.4375 15.374Z" fill="#5766F5"/>
<path fill-rule="evenodd" clip-rule="evenodd" d="M3.73212 12.2992C3.73212 9.26031 3.73212 7.74085 4.30141 6.58014C4.80218 5.55915 5.60123 4.72906 6.58404 4.20884C7.70135 3.61743 9.16399 3.61743 12.0893 3.61743H12.7857C15.711 3.61743 17.1736 3.61743 18.2909 4.20884C19.2737 4.72906 20.0728 5.55915 20.5735 6.58014C21.1428 7.74085 21.1428 9.26031 21.1428 12.2992V13.0227C21.1428 16.0616 21.1428 17.5811 20.5735 18.7418C20.0728 19.7628 19.2737 20.5929 18.2909 21.1131C17.1736 21.7045 15.711 21.7045 12.7857 21.7045H12.0893C9.16399 21.7045 7.70135 21.7045 6.58404 21.1131C5.60123 20.5929 4.80218 19.7628 4.30141 18.7418C3.73212 17.5811 3.73212 16.0616 3.73212 13.0227V12.2992ZM12.0893 5.42614H12.7857C14.2771 5.42614 15.2909 5.42754 16.0745 5.49406C16.8378 5.55885 17.2282 5.67628 17.5005 5.82041C18.1557 6.16723 18.6884 6.72062 19.0222 7.40128C19.161 7.68416 19.274 8.08968 19.3364 8.88264C19.4004 9.69672 19.4018 10.7499 19.4018 12.2992V13.0227C19.4018 14.572 19.4004 15.6252 19.3364 16.4393C19.274 17.2322 19.161 17.6378 19.0222 17.9206C18.6884 18.6013 18.1557 19.1547 17.5005 19.5015C17.2282 19.6456 16.8378 19.7631 16.0745 19.8279C15.2909 19.8944 14.2771 19.8958 12.7857 19.8958H12.0893C10.5979 19.8958 9.58408 19.8944 8.80044 19.8279C8.03713 19.7631 7.64677 19.6456 7.37447 19.5015C6.71926 19.1547 6.18656 18.6013 5.85272 17.9206C5.71397 17.6378 5.60093 17.2322 5.53857 16.4393C5.47454 15.6252 5.47319 14.572 5.47319 13.0227V12.2992C5.47319 10.7499 5.47454 9.69672 5.53857 8.88264C5.60093 8.08968 5.71397 7.68416 5.85272 7.40128C6.18656 6.72062 6.71926 6.16723 7.37447 5.82041C7.64677 5.67628 8.03713 5.55885 8.80044 5.49406C9.58408 5.42754 10.5979 5.42614 12.0893 5.42614Z" fill="#5766F5"/>
<defs>
<radialGradient id="paint0_radial_224_2491" cx="0" cy="0" r="1" gradientUnits="userSpaceOnUse" gradientTransform="translate(8.95536 18.9914) rotate(-56.3897) scale(22.8037 22.4837)">
<stop stop-color="#B13589"/>
<stop offset="0.79309" stop-color="#C62F94"/>
<stop offset="1" stop-color="#8A3AC8"/>
</radialGradient>
</defs>
</svg>
