<svg width="25" height="26" viewBox="0 0 25 26" fill="none" xmlns="http://www.w3.org/2000/svg">
<rect width="24.375" height="25.3219" rx="12.1875" fill="white"/>
<path d="M9.24383 6.95633C9.24383 7.80149 8.53866 8.48663 7.66879 8.48663C6.79892 8.48663 6.09375 7.80149 6.09375 6.95633C6.09375 6.11116 6.79892 5.42603 7.66879 5.42603C8.53866 5.42603 9.24383 6.11116 9.24383 6.95633Z" fill="#5766F5"/>
<path d="M6.30914 9.61146H9.00152V18.087H6.30914V9.61146Z" fill="#5766F5"/>
<path d="M13.3362 9.61146H10.6439V18.087H13.3362C13.3362 18.087 13.3362 15.4188 13.3362 13.7505C13.3362 12.7491 13.6654 11.7434 14.9786 11.7434C16.4627 11.7434 16.4538 13.0538 16.4469 14.069C16.4378 15.396 16.4594 16.7502 16.4594 18.087H19.1518V13.6138C19.129 10.7575 18.4125 9.44143 16.0556 9.44143C14.6558 9.44143 13.7882 10.1016 13.3362 10.6988V9.61146Z" fill="#5766F5"/>
</svg>
