<svg width="153" height="86" viewBox="0 0 153 86" fill="none" xmlns="http://www.w3.org/2000/svg">
<g filter="url(#filter0_d_224_2597)">
<path d="M52.6312 37.6553L53.6372 31.5875L70.2844 10.8061H75.6762L74.3086 19.0432H71.1804L61.4342 31.2731L61.3713 31.5246H80.4865L79.4647 37.6553H52.6312ZM67.2976 43L68.508 35.8004L69.1054 33.1438L72.7995 10.8061H80.0777L74.733 43H67.2976ZM84.9076 43.4559C83.7653 43.4559 82.8326 43.0576 82.1095 42.2612C81.3864 41.4647 81.072 40.5006 81.1663 39.3688C81.2711 38.2579 81.7637 37.3095 82.644 36.5235C83.5243 35.7375 84.5303 35.3445 85.6622 35.3445C86.7416 35.3445 87.6481 35.7375 88.3817 36.5235C89.1257 37.3095 89.4454 38.2579 89.3406 39.3688C89.2777 40.1233 89.0209 40.8097 88.5703 41.428C88.1302 42.0463 87.5852 42.5389 86.9355 42.9057C86.2857 43.2725 85.6098 43.4559 84.9076 43.4559ZM91.6828 43L108.927 17.2826L108.99 17.0782H93.805L94.8268 10.8061H118.06L117.023 17.1254L99.6841 43H91.6828Z" fill="#5766F5"/>
</g>
<path d="M20.6852 77.9034L24.8243 81.1888L23.0628 82.7342L18.9992 79.4813L20.6852 77.9034ZM24.8568 71.7V72.5646C24.8568 73.7534 24.7019 74.8197 24.3921 75.7635C24.0822 76.7074 23.6391 77.5107 23.0628 78.1736C22.4864 78.8364 21.7983 79.3444 20.9986 79.6974C20.1988 80.0432 19.3126 80.2161 18.34 80.2161C17.3745 80.2161 16.4919 80.0432 15.6922 79.6974C14.8997 79.3444 14.2116 78.8364 13.628 78.1736C13.0444 77.5107 12.5905 76.7074 12.2663 75.7635C11.9493 74.8197 11.7908 73.7534 11.7908 72.5646V71.7C11.7908 70.5112 11.9493 69.4485 12.2663 68.5118C12.5833 67.568 13.03 66.7647 13.6064 66.1018C14.19 65.4318 14.878 64.9238 15.6706 64.578C16.4703 64.225 17.3529 64.0484 18.3184 64.0484C19.291 64.0484 20.1772 64.225 20.977 64.578C21.7839 64.9238 22.4756 65.4318 23.052 66.1018C23.6283 66.7647 24.0714 67.568 24.3812 68.5118C24.6983 69.4485 24.8568 70.5112 24.8568 71.7ZM22.1333 72.5646V71.6784C22.1333 70.7994 22.0469 70.0249 21.874 69.3548C21.7082 68.6776 21.4597 68.112 21.1283 67.6581C20.804 67.197 20.4042 66.8511 19.9286 66.6206C19.4603 66.3828 18.9236 66.2639 18.3184 66.2639C17.7276 66.2639 17.198 66.3828 16.7297 66.6206C16.2614 66.8511 15.8615 67.197 15.5301 67.6581C15.1987 68.112 14.9465 68.6776 14.7736 69.3548C14.6006 70.0249 14.5142 70.7994 14.5142 71.6784V72.5646C14.5142 73.4436 14.6006 74.2217 14.7736 74.899C14.9465 75.5762 15.1987 76.149 15.5301 76.6173C15.8687 77.0784 16.2722 77.4279 16.7405 77.6656C17.216 77.8962 17.7492 78.0115 18.34 78.0115C18.9452 78.0115 19.4819 77.8962 19.9503 77.6656C20.4186 77.4279 20.8148 77.0784 21.1391 76.6173C21.4633 76.149 21.7082 75.5762 21.874 74.899C22.0469 74.2217 22.1333 73.4436 22.1333 72.5646ZM33.6971 77.2441V68.3065H36.3125V80H33.8484L33.6971 77.2441ZM34.0646 74.8125L34.94 74.7909C34.94 75.5762 34.8535 76.3003 34.6806 76.9632C34.5077 77.6188 34.2411 78.1916 33.8809 78.6815C33.5206 79.1642 33.0595 79.5425 32.4975 79.8163C31.9355 80.0829 31.2619 80.2161 30.4766 80.2161C29.9074 80.2161 29.385 80.1333 28.9095 79.9676C28.434 79.8019 28.0233 79.5461 27.6775 79.2003C27.3388 78.8544 27.0759 78.4041 26.8885 77.8493C26.7012 77.2946 26.6076 76.6317 26.6076 75.8608V68.3065H29.2121V75.8824C29.2121 76.3075 29.2625 76.6641 29.3634 76.9523C29.4643 77.2333 29.6012 77.4603 29.7741 77.6332C29.947 77.8061 30.1487 77.9286 30.3793 78.0007C30.6099 78.0727 30.8548 78.1087 31.1142 78.1087C31.8563 78.1087 32.4399 77.9646 32.865 77.6764C33.2973 77.381 33.6035 76.9848 33.7836 76.4876C33.9709 75.9905 34.0646 75.4321 34.0646 74.8125ZM44.8827 77.6548V72.0783C44.8827 71.6604 44.807 71.3001 44.6557 70.9975C44.5044 70.6949 44.2739 70.4608 43.9641 70.2951C43.6615 70.1293 43.2796 70.0465 42.8185 70.0465C42.3934 70.0465 42.026 70.1185 41.7161 70.2626C41.4063 70.4067 41.165 70.6013 40.9921 70.8462C40.8191 71.0912 40.7327 71.3686 40.7327 71.6784H38.1389C38.1389 71.2173 38.2506 70.7706 38.474 70.3383C38.6973 69.906 39.0215 69.5205 39.4466 69.1819C39.8717 68.8433 40.3796 68.5767 40.9704 68.3822C41.5612 68.1876 42.2241 68.0904 42.959 68.0904C43.838 68.0904 44.6161 68.2381 45.2934 68.5335C45.9778 68.8289 46.5146 69.2756 46.9036 69.8736C47.2999 70.4644 47.498 71.2065 47.498 72.0999V77.2982C47.498 77.8313 47.5341 78.3105 47.6061 78.7355C47.6854 79.1534 47.797 79.5173 47.9411 79.8271V80H45.2717C45.1493 79.719 45.052 79.3624 44.9799 78.9301C44.9151 78.4906 44.8827 78.0655 44.8827 77.6548ZM45.2609 72.8888L45.2825 74.4991H43.4129C42.9302 74.4991 42.5051 74.5459 42.1376 74.6396C41.7702 74.726 41.464 74.8557 41.219 75.0286C40.974 75.2016 40.7903 75.4105 40.6678 75.6555C40.5454 75.9004 40.4841 76.1778 40.4841 76.4876C40.4841 76.7974 40.5562 77.082 40.7003 77.3414C40.8444 77.5936 41.0533 77.7917 41.3271 77.9358C41.6081 78.0799 41.9467 78.152 42.343 78.152C42.8761 78.152 43.3408 78.0439 43.7371 77.8277C44.1406 77.6044 44.4576 77.3342 44.6881 77.0172C44.9187 76.693 45.0412 76.3868 45.0556 76.0986L45.8986 77.2549C45.8121 77.5503 45.6644 77.8674 45.4555 78.206C45.2465 78.5446 44.9727 78.8688 44.6341 79.1786C44.3027 79.4813 43.9028 79.7298 43.4345 79.9243C42.9734 80.1189 42.4402 80.2161 41.835 80.2161C41.0713 80.2161 40.3904 80.0648 39.7924 79.7622C39.1944 79.4524 38.7261 79.0382 38.3875 78.5194C38.0489 77.9934 37.8796 77.399 37.8796 76.7362C37.8796 76.1166 37.9948 75.569 38.2254 75.0935C38.4631 74.6108 38.809 74.2073 39.2629 73.8831C39.724 73.5589 40.286 73.3139 40.9488 73.1482C41.6117 72.9753 42.3682 72.8888 43.2184 72.8888H45.2609ZM52.3181 63.4V80H49.7027V63.4H52.3181ZM57.2678 68.3065V80H54.6525V68.3065H57.2678ZM54.4796 65.2372C54.4796 64.841 54.6092 64.5132 54.8686 64.2538C55.1352 63.9872 55.5026 63.8539 55.971 63.8539C56.4321 63.8539 56.7959 63.9872 57.0625 64.2538C57.3291 64.5132 57.4624 64.841 57.4624 65.2372C57.4624 65.6263 57.3291 65.9505 57.0625 66.2099C56.7959 66.4693 56.4321 66.599 55.971 66.599C55.5026 66.599 55.1352 66.4693 54.8686 66.2099C54.6092 65.9505 54.4796 65.6263 54.4796 65.2372ZM62.7796 80H60.1642V67.55C60.1642 66.6062 60.3515 65.81 60.7262 65.1616C61.108 64.5132 61.652 64.0196 62.3581 63.681C63.0714 63.3424 63.9179 63.173 64.8978 63.173C65.4742 63.173 66.0289 63.2343 66.5621 63.3568C67.1025 63.4793 67.6608 63.6342 68.2372 63.8215L67.8374 65.9397C67.4699 65.8172 67.0628 65.702 66.6161 65.5939C66.1694 65.4786 65.6543 65.421 65.0707 65.421C64.2854 65.421 63.7054 65.6011 63.3307 65.9613C62.9633 66.3144 62.7796 66.8439 62.7796 67.55V80ZM65.1247 68.3065V70.2086H58.3702V68.3065H65.1247ZM69.4693 68.3065V80H66.8647V68.3065H69.4693ZM76.4616 78.1411C76.8867 78.1411 77.2685 78.0583 77.6072 77.8926C77.953 77.7197 78.2304 77.4819 78.4393 77.1793C78.6555 76.8767 78.7743 76.5273 78.796 76.131H81.2492C81.2348 76.8875 81.0115 77.5756 80.5792 78.1952C80.1469 78.8148 79.5741 79.3083 78.8608 79.6758C78.1475 80.036 77.3586 80.2161 76.494 80.2161C75.6006 80.2161 74.8225 80.0648 74.1596 79.7622C73.4968 79.4524 72.9456 79.0273 72.5061 78.487C72.0666 77.9466 71.7352 77.3234 71.5118 76.6173C71.2957 75.9112 71.1876 75.1547 71.1876 74.3478V73.9695C71.1876 73.1626 71.2957 72.4061 71.5118 71.7C71.7352 70.9867 72.0666 70.3599 72.5061 69.8195C72.9456 69.2792 73.4968 68.8577 74.1596 68.5551C74.8225 68.2453 75.597 68.0904 76.4832 68.0904C77.4198 68.0904 78.2412 68.2777 78.9473 68.6523C79.6533 69.0198 80.2081 69.5349 80.6116 70.1978C81.0223 70.8534 81.2348 71.6171 81.2492 72.4889H78.796C78.7743 72.0566 78.6663 71.6676 78.4717 71.3217C78.2844 70.9687 78.0178 70.6877 77.672 70.4788C77.3334 70.2698 76.9263 70.1654 76.4508 70.1654C75.9248 70.1654 75.4889 70.2734 75.1431 70.4896C74.7973 70.6985 74.5271 70.9867 74.3325 71.3542C74.138 71.7144 73.9975 72.1215 73.9111 72.5754C73.8318 73.0221 73.7922 73.4868 73.7922 73.9695V74.3478C73.7922 74.8305 73.8318 75.2988 73.9111 75.7527C73.9903 76.2066 74.1272 76.6137 74.3217 76.974C74.5235 77.327 74.7973 77.6116 75.1431 77.8277C75.4889 78.0367 75.9284 78.1411 76.4616 78.1411ZM89.1493 77.6548V72.0783C89.1493 71.6604 89.0737 71.3001 88.9224 70.9975C88.7711 70.6949 88.5405 70.4608 88.2307 70.2951C87.9281 70.1293 87.5463 70.0465 87.0852 70.0465C86.6601 70.0465 86.2926 70.1185 85.9828 70.2626C85.673 70.4067 85.4316 70.6013 85.2587 70.8462C85.0858 71.0912 84.9993 71.3686 84.9993 71.6784H82.4056C82.4056 71.2173 82.5173 70.7706 82.7406 70.3383C82.964 69.906 83.2882 69.5205 83.7133 69.1819C84.1384 68.8433 84.6463 68.5767 85.2371 68.3822C85.8279 68.1876 86.4908 68.0904 87.2257 68.0904C88.1046 68.0904 88.8828 68.2381 89.56 68.5335C90.2445 68.8289 90.7812 69.2756 91.1703 69.8736C91.5666 70.4644 91.7647 71.2065 91.7647 72.0999V77.2982C91.7647 77.8313 91.8007 78.3105 91.8728 78.7355C91.952 79.1534 92.0637 79.5173 92.2078 79.8271V80H89.5384C89.4159 79.719 89.3187 79.3624 89.2466 78.9301C89.1818 78.4906 89.1493 78.0655 89.1493 77.6548ZM89.5276 72.8888L89.5492 74.4991H87.6796C87.1968 74.4991 86.7717 74.5459 86.4043 74.6396C86.0368 74.726 85.7306 74.8557 85.4857 75.0286C85.2407 75.2016 85.057 75.4105 84.9345 75.6555C84.812 75.9004 84.7508 76.1778 84.7508 76.4876C84.7508 76.7974 84.8228 77.082 84.9669 77.3414C85.111 77.5936 85.32 77.7917 85.5937 77.9358C85.8747 78.0799 86.2134 78.152 86.6096 78.152C87.1428 78.152 87.6075 78.0439 88.0038 77.8277C88.4072 77.6044 88.7243 77.3342 88.9548 77.0172C89.1854 76.693 89.3079 76.3868 89.3223 76.0986L90.1652 77.2549C90.0788 77.5503 89.9311 77.8674 89.7221 78.206C89.5132 78.5446 89.2394 78.8688 88.9008 79.1786C88.5694 79.4813 88.1695 79.7298 87.7012 79.9243C87.2401 80.1189 86.7069 80.2161 86.1017 80.2161C85.338 80.2161 84.6571 80.0648 84.0591 79.7622C83.4611 79.4524 82.9928 79.0382 82.6542 78.5194C82.3155 77.9934 82.1462 77.399 82.1462 76.7362C82.1462 76.1166 82.2615 75.569 82.4921 75.0935C82.7298 74.6108 83.0757 74.2073 83.5296 73.8831C83.9907 73.5589 84.5526 73.3139 85.2155 73.1482C85.8783 72.9753 86.6349 72.8888 87.485 72.8888H89.5276ZM99.1569 68.3065V70.2086H92.5644V68.3065H99.1569ZM94.4665 65.4426H97.0711V76.7686C97.0711 77.1289 97.1215 77.4063 97.2224 77.6008C97.3305 77.7881 97.4782 77.9142 97.6655 77.979C97.8528 78.0439 98.0726 78.0763 98.3247 78.0763C98.5049 78.0763 98.6778 78.0655 98.8435 78.0439C99.0092 78.0223 99.1425 78.0007 99.2434 77.979L99.2542 79.9676C99.038 80.0324 98.7858 80.0901 98.4977 80.1405C98.2167 80.1909 97.8924 80.2161 97.525 80.2161C96.927 80.2161 96.3974 80.1117 95.9363 79.9027C95.4752 79.6866 95.115 79.3372 94.8556 78.8544C94.5962 78.3717 94.4665 77.7305 94.4665 76.9307V65.4426ZM103.264 68.3065V80H100.648V68.3065H103.264ZM100.475 65.2372C100.475 64.841 100.605 64.5132 100.864 64.2538C101.131 63.9872 101.498 63.8539 101.967 63.8539C102.428 63.8539 102.792 63.9872 103.058 64.2538C103.325 64.5132 103.458 64.841 103.458 65.2372C103.458 65.6263 103.325 65.9505 103.058 66.2099C102.792 66.4693 102.428 66.599 101.967 66.599C101.498 66.599 101.131 66.4693 100.864 66.2099C100.605 65.9505 100.475 65.6263 100.475 65.2372ZM104.928 74.2829V74.0344C104.928 73.1914 105.05 72.4097 105.295 71.6892C105.54 70.9615 105.893 70.3311 106.355 69.7979C106.823 69.2576 107.392 68.8397 108.062 68.5443C108.739 68.2417 109.503 68.0904 110.353 68.0904C111.211 68.0904 111.974 68.2417 112.644 68.5443C113.322 68.8397 113.894 69.2576 114.363 69.7979C114.831 70.3311 115.188 70.9615 115.433 71.6892C115.678 72.4097 115.8 73.1914 115.8 74.0344V74.2829C115.8 75.1259 115.678 75.9076 115.433 76.6281C115.188 77.3486 114.831 77.979 114.363 78.5194C113.894 79.0526 113.325 79.4704 112.655 79.773C111.985 80.0684 111.225 80.2161 110.375 80.2161C109.517 80.2161 108.75 80.0684 108.073 79.773C107.403 79.4704 106.834 79.0526 106.365 78.5194C105.897 77.979 105.54 77.3486 105.295 76.6281C105.05 75.9076 104.928 75.1259 104.928 74.2829ZM107.533 74.0344V74.2829C107.533 74.8089 107.587 75.306 107.695 75.7743C107.803 76.2427 107.972 76.6533 108.203 77.0064C108.433 77.3594 108.729 77.6368 109.089 77.8385C109.449 78.0403 109.878 78.1411 110.375 78.1411C110.858 78.1411 111.275 78.0403 111.629 77.8385C111.989 77.6368 112.284 77.3594 112.515 77.0064C112.745 76.6533 112.915 76.2427 113.023 75.7743C113.138 75.306 113.196 74.8089 113.196 74.2829V74.0344C113.196 73.5156 113.138 73.0257 113.023 72.5646C112.915 72.0963 112.742 71.682 112.504 71.3217C112.273 70.9615 111.978 70.6805 111.618 70.4788C111.265 70.2698 110.843 70.1654 110.353 70.1654C109.863 70.1654 109.438 70.2698 109.078 70.4788C108.725 70.6805 108.433 70.9615 108.203 71.3217C107.972 71.682 107.803 72.0963 107.695 72.5646C107.587 73.0257 107.533 73.5156 107.533 74.0344ZM119.874 70.803V80H117.27V68.3065H119.723L119.874 70.803ZM119.41 73.721L118.567 73.7102C118.574 72.8816 118.689 72.1215 118.913 71.4298C119.143 70.7382 119.46 70.1438 119.864 69.6466C120.274 69.1495 120.764 68.7676 121.333 68.501C121.903 68.2273 122.537 68.0904 123.236 68.0904C123.798 68.0904 124.305 68.1696 124.759 68.3281C125.22 68.4794 125.613 68.728 125.937 69.0738C126.269 69.4197 126.521 69.87 126.694 70.4247C126.867 70.9723 126.953 71.646 126.953 72.4457V80H124.338V72.4349C124.338 71.8729 124.255 71.4298 124.089 71.1056C123.931 70.7742 123.697 70.54 123.387 70.4031C123.084 70.259 122.706 70.187 122.252 70.187C121.805 70.187 121.406 70.2806 121.052 70.468C120.699 70.6553 120.4 70.9111 120.155 71.2353C119.918 71.5595 119.734 71.9342 119.604 72.3592C119.475 72.7843 119.41 73.2382 119.41 73.721Z" fill="black"/>
<path d="M27.4553 10L32.849 20.927L44.9106 22.69L36.183 31.1907L38.2427 43.2L27.4553 37.527L16.6679 43.2L18.7277 31.1907L10 22.69L22.0616 20.927L27.4553 10Z" stroke="#595959" stroke-width="3.49106" stroke-linecap="round" stroke-linejoin="round"/>
<defs>
<filter id="filter0_d_224_2597" x="52.6312" y="10.806" width="65.4293" height="35.4165" filterUnits="userSpaceOnUse" color-interpolation-filters="sRGB">
<feFlood flood-opacity="0" result="BackgroundImageFix"/>
<feColorMatrix in="SourceAlpha" type="matrix" values="0 0 0 0 0 0 0 0 0 0 0 0 0 0 0 0 0 0 127 0" result="hardAlpha"/>
<feOffset dy="2.76667"/>
<feColorMatrix type="matrix" values="0 0 0 0 1 0 0 0 0 1 0 0 0 0 1 0 0 0 1 0"/>
<feBlend mode="normal" in2="BackgroundImageFix" result="effect1_dropShadow_224_2597"/>
<feBlend mode="normal" in="SourceGraphic" in2="effect1_dropShadow_224_2597" result="shape"/>
</filter>
</defs>
</svg>
