<svg width="182" height="86" viewBox="0 0 182 86" fill="none" xmlns="http://www.w3.org/2000/svg">
<g filter="url(#filter0_d_224_2593)">
<path d="M45.242 43L46.1695 37.4038L59.6255 27.1231C60.6421 26.3266 61.5119 25.5931 62.235 24.9223C62.9686 24.2516 63.5555 23.5809 63.9956 22.9102C64.4358 22.2395 64.7187 21.5059 64.8445 20.7095C64.9912 19.8187 64.9231 19.0537 64.6401 18.4144C64.3572 17.7751 63.9065 17.2878 63.2882 16.9525C62.6699 16.6066 61.9259 16.4337 61.056 16.4337C60.1653 16.4337 59.3478 16.6171 58.6038 16.9839C57.8597 17.3402 57.2414 17.8642 56.7488 18.5559C56.2668 19.2371 55.9471 20.0597 55.7899 21.0239H48.4017C48.7685 18.8336 49.5807 16.942 50.8382 15.3491C52.0958 13.7561 53.6887 12.53 55.617 11.6706C57.5453 10.8008 59.6989 10.3659 62.0778 10.3659C64.5091 10.3659 66.5579 10.7746 68.2242 11.592C69.901 12.4095 71.1114 13.5518 71.8555 15.0189C72.61 16.4756 72.8249 18.1681 72.5 20.0964C72.2904 21.3225 71.8345 22.5382 71.1324 23.7434C70.4407 24.9381 69.3351 26.269 67.8155 27.7362C66.2959 29.1929 64.2052 30.9378 61.5433 32.9708L57.1104 36.5235L57.0632 36.7278H70.1263L69.0731 43H45.242ZM83.657 43.4402C81.32 43.4402 79.3079 43.0157 77.6207 42.1669C75.9334 41.318 74.6863 40.1495 73.8794 38.6614C73.0724 37.1732 72.8052 35.465 73.0777 33.5367H80.6231C80.4869 34.7105 80.8065 35.6589 81.582 36.382C82.368 37.1051 83.3846 37.4667 84.6317 37.4667C85.6272 37.4667 86.5337 37.2518 87.3512 36.8222C88.1791 36.3925 88.8707 35.7899 89.4262 35.0144C89.9816 34.2389 90.3431 33.3376 90.5108 32.3106C90.689 31.2731 90.6261 30.3666 90.3222 29.5911C90.0183 28.8051 89.5205 28.1973 88.8288 27.7676C88.1371 27.3379 87.2988 27.1231 86.3137 27.1231C85.3705 27.1231 84.4483 27.3327 83.547 27.7519C82.6562 28.1606 81.9331 28.7265 81.3777 29.4496L74.7125 28.1606L79.004 10.8061H99.6597L98.6379 17.0782H84.3801L82.3837 24.6708H82.5724C83.2536 23.78 84.2387 23.0465 85.5277 22.4701C86.8167 21.8832 88.221 21.5898 89.7406 21.5898C91.6688 21.5898 93.3089 22.0404 94.6608 22.9417C96.0232 23.8324 97.0083 25.0743 97.6161 26.6672C98.224 28.2497 98.3549 30.0574 98.0091 32.0905C97.6633 34.3018 96.8301 36.2615 95.5097 37.9697C94.1997 39.6674 92.5229 41.0036 90.4794 41.9782C88.4463 42.9528 86.1722 43.4402 83.657 43.4402ZM111.618 43.786C108.799 43.786 106.478 43.1205 104.655 41.7896C102.831 40.4482 101.579 38.5251 100.898 36.0205C100.216 33.5053 100.18 30.4819 100.788 26.9502C101.385 23.4185 102.438 20.4213 103.947 17.9585C105.456 15.4853 107.332 13.6042 109.575 12.3152C111.818 11.0157 114.338 10.3659 117.136 10.3659C119.945 10.3659 122.255 11.0157 124.068 12.3152C125.892 13.6042 127.15 15.4853 127.841 17.9585C128.533 20.4213 128.585 23.4185 127.998 26.9502C127.411 30.4819 126.358 33.5053 124.839 36.0205C123.33 38.5356 121.448 40.4586 119.195 41.7896C116.953 43.1205 114.427 43.786 111.618 43.786ZM112.687 37.4195C114.364 37.4195 115.852 36.5602 117.152 34.8415C118.451 33.1228 119.4 30.4924 119.997 26.9502C120.395 24.6342 120.484 22.7164 120.264 21.1968C120.055 19.6772 119.588 18.5454 118.865 17.8013C118.153 17.0573 117.241 16.6852 116.13 16.6852C114.453 16.6852 112.955 17.5289 111.634 19.2161C110.314 20.8929 109.36 23.4709 108.773 26.9502C108.385 29.3186 108.302 31.2783 108.522 32.8294C108.742 34.3699 109.213 35.5227 109.936 36.2877C110.66 37.0422 111.577 37.4195 112.687 37.4195ZM135.756 36.665L137.312 27.5004H138.366L146.634 18.8545H155.343L143.207 31.2417H141.179L135.756 36.665ZM127.786 43L133.131 10.8061H140.818L135.473 43H127.786ZM142.783 43L138.13 32.9708L144.119 27.5161L151.664 43H142.783ZM161.418 41.3966L165.175 18.6345H171.526L167.769 41.3966H161.418ZM154.549 33.1909L155.634 26.8559H178.396L177.311 33.1909H154.549Z" fill="#5766F5"/>
</g>
<path d="M49.2057 64.2646H54.7715C55.9675 64.2646 56.987 64.4447 57.8299 64.8049C58.6729 65.1652 59.3177 65.6984 59.7645 66.4044C60.2184 67.1033 60.4453 67.9679 60.4453 68.9982C60.4453 69.7835 60.3012 70.4752 60.013 71.0732C59.7248 71.6712 59.3177 72.1755 58.7918 72.5862C58.2658 72.9897 57.639 73.3031 56.9113 73.5264L56.09 73.9263H51.0862L51.0646 71.7757H54.8147C55.4631 71.7757 56.0035 71.6604 56.4358 71.4298C56.8681 71.1993 57.1923 70.8859 57.4085 70.4896C57.6318 70.0861 57.7435 69.6322 57.7435 69.1279C57.7435 68.5803 57.6354 68.1048 57.4193 67.7013C57.2103 67.2906 56.8861 66.9772 56.4466 66.7611C56.0071 66.5377 55.4487 66.426 54.7715 66.426H51.9184V80H49.2057V64.2646ZM58.1866 80L54.4905 72.932L57.3328 72.9212L61.0829 79.8595V80H58.1866ZM67.3512 80.2161C66.4866 80.2161 65.7049 80.0757 65.006 79.7947C64.3143 79.5065 63.7235 79.1066 63.2336 78.5951C62.7509 78.0835 62.3798 77.4819 62.1204 76.7902C61.8611 76.0986 61.7314 75.3529 61.7314 74.5531V74.1208C61.7314 73.2058 61.8647 72.3773 62.1312 71.6352C62.3978 70.8931 62.7689 70.259 63.2444 69.7331C63.7199 69.1999 64.2819 68.7928 64.9303 68.5118C65.5788 68.2309 66.2812 68.0904 67.0378 68.0904C67.8735 68.0904 68.6048 68.2309 69.2316 68.5118C69.8585 68.7928 70.3772 69.1891 70.7879 69.7007C71.2058 70.205 71.5156 70.8066 71.7173 71.5055C71.9263 72.2043 72.0307 72.9753 72.0307 73.8182V74.9314H62.9958V73.0617H69.4586V72.8564C69.4442 72.3881 69.3505 71.9486 69.1776 71.5379C69.0119 71.1272 68.7561 70.7958 68.4103 70.5436C68.0645 70.2914 67.6033 70.1654 67.027 70.1654C66.5947 70.1654 66.2092 70.259 65.8706 70.4464C65.5391 70.6265 65.2618 70.8895 65.0384 71.2353C64.8151 71.5811 64.6421 71.999 64.5197 72.4889C64.4044 72.9717 64.3467 73.5156 64.3467 74.1208V74.5531C64.3467 75.0647 64.4152 75.5402 64.5521 75.9797C64.6962 76.412 64.9051 76.7902 65.1789 77.1145C65.4527 77.4387 65.7841 77.6944 66.1732 77.8818C66.5622 78.0619 67.0053 78.152 67.5025 78.152C68.1293 78.152 68.6877 78.0259 69.1776 77.7737C69.6675 77.5215 70.0926 77.1649 70.4529 76.7038L71.8254 78.0331C71.5732 78.4005 71.2454 78.7536 70.8419 79.0922C70.4385 79.4236 69.9449 79.6938 69.3613 79.9027C68.7849 80.1117 68.1149 80.2161 67.3512 80.2161ZM77.0237 77.9358L79.8876 68.3065H82.5895L78.5259 80H76.84L77.0237 77.9358ZM74.8298 68.3065L77.7478 77.979L77.8883 80H76.2023L72.1172 68.3065H74.8298ZM86.2964 68.3065V80H83.681V68.3065H86.2964ZM83.5081 65.2372C83.5081 64.841 83.6378 64.5132 83.8971 64.2538C84.1637 63.9872 84.5312 63.8539 84.9995 63.8539C85.4606 63.8539 85.8244 63.9872 86.091 64.2538C86.3576 64.5132 86.4909 64.841 86.4909 65.2372C86.4909 65.6263 86.3576 65.9505 86.091 66.2099C85.8244 66.4693 85.4606 66.599 84.9995 66.599C84.5312 66.599 84.1637 66.4693 83.8971 66.2099C83.6378 65.9505 83.5081 65.6263 83.5081 65.2372ZM93.6129 80.2161C92.7483 80.2161 91.9666 80.0757 91.2677 79.7947C90.576 79.5065 89.9852 79.1066 89.4953 78.5951C89.0126 78.0835 88.6415 77.4819 88.3822 76.7902C88.1228 76.0986 87.9931 75.3529 87.9931 74.5531V74.1208C87.9931 73.2058 88.1264 72.3773 88.393 71.6352C88.6595 70.8931 89.0306 70.259 89.5061 69.7331C89.9816 69.1999 90.5436 68.7928 91.1921 68.5118C91.8405 68.2309 92.543 68.0904 93.2995 68.0904C94.1352 68.0904 94.8665 68.2309 95.4934 68.5118C96.1202 68.7928 96.6389 69.1891 97.0496 69.7007C97.4675 70.205 97.7773 70.8066 97.979 71.5055C98.188 72.2043 98.2924 72.9753 98.2924 73.8182V74.9314H89.2576V73.0617H95.7203V72.8564C95.7059 72.3881 95.6122 71.9486 95.4393 71.5379C95.2736 71.1272 95.0178 70.7958 94.672 70.5436C94.3262 70.2914 93.8651 70.1654 93.2887 70.1654C92.8564 70.1654 92.4709 70.259 92.1323 70.4464C91.8009 70.6265 91.5235 70.8895 91.3001 71.2353C91.0768 71.5811 90.9039 71.999 90.7814 72.4889C90.6661 72.9717 90.6085 73.5156 90.6085 74.1208V74.5531C90.6085 75.0647 90.6769 75.5402 90.8138 75.9797C90.9579 76.412 91.1668 76.7902 91.4406 77.1145C91.7144 77.4387 92.0458 77.6944 92.4349 77.8818C92.824 78.0619 93.2671 78.152 93.7642 78.152C94.391 78.152 94.9494 78.0259 95.4393 77.7737C95.9293 77.5215 96.3543 77.1649 96.7146 76.7038L98.0871 78.0331C97.8349 78.4005 97.5071 78.7536 97.1036 79.0922C96.7002 79.4236 96.2066 79.6938 95.623 79.9027C95.0467 80.1117 94.3766 80.2161 93.6129 80.2161ZM102.81 77.4063L105.512 68.3065H107.176L106.722 71.0299L103.999 80H102.507L102.81 77.4063ZM101.221 68.3065L103.329 77.4495L103.502 80H101.837L98.6707 68.3065H101.221ZM109.705 77.3414L111.748 68.3065H114.287L111.132 80H109.467L109.705 77.3414ZM107.457 68.3065L110.126 77.2982L110.461 80H108.97L106.214 71.0191L105.76 68.3065H107.457ZM121.928 76.8335C121.928 76.5741 121.863 76.3399 121.733 76.131C121.604 75.9148 121.355 75.7203 120.988 75.5474C120.628 75.3745 120.094 75.216 119.388 75.0719C118.769 74.935 118.199 74.7729 117.681 74.5855C117.169 74.391 116.73 74.1569 116.362 73.8831C115.995 73.6093 115.71 73.2851 115.508 72.9104C115.307 72.5358 115.206 72.1035 115.206 71.6135C115.206 71.138 115.31 70.6877 115.519 70.2626C115.728 69.8375 116.027 69.4629 116.416 69.1387C116.805 68.8145 117.277 68.5587 117.832 68.3714C118.394 68.184 119.021 68.0904 119.712 68.0904C120.692 68.0904 121.532 68.2561 122.231 68.5875C122.937 68.9117 123.477 69.3548 123.852 69.9168C124.226 70.4716 124.414 71.0984 124.414 71.7973H121.809C121.809 71.4875 121.73 71.1993 121.571 70.9327C121.42 70.6589 121.189 70.4391 120.88 70.2734C120.57 70.1005 120.181 70.0141 119.712 70.0141C119.266 70.0141 118.895 70.0861 118.599 70.2302C118.311 70.3671 118.095 70.5472 117.951 70.7706C117.814 70.9939 117.746 71.2389 117.746 71.5055C117.746 71.7 117.782 71.8765 117.854 72.035C117.933 72.1863 118.063 72.3268 118.243 72.4565C118.423 72.579 118.668 72.6943 118.978 72.8023C119.295 72.9104 119.691 73.0149 120.166 73.1158C121.06 73.3031 121.827 73.5444 122.468 73.8398C123.117 74.128 123.614 74.5027 123.96 74.9638C124.306 75.4177 124.479 75.9941 124.479 76.693C124.479 77.2117 124.367 77.6872 124.143 78.1195C123.927 78.5446 123.61 78.9157 123.192 79.2327C122.775 79.5425 122.274 79.7839 121.69 79.9568C121.114 80.1297 120.465 80.2161 119.745 80.2161C118.686 80.2161 117.789 80.0288 117.054 79.6542C116.319 79.2723 115.761 78.786 115.379 78.1952C115.004 77.5972 114.817 76.9776 114.817 76.3363H117.335C117.364 76.8191 117.497 77.2045 117.735 77.4927C117.98 77.7737 118.282 77.979 118.643 78.1087C119.01 78.2312 119.388 78.2924 119.777 78.2924C120.246 78.2924 120.638 78.2312 120.955 78.1087C121.272 77.979 121.514 77.8061 121.679 77.59C121.845 77.3666 121.928 77.1145 121.928 76.8335Z" fill="black"/>
<path d="M35.2 32.1333C35.2 33.1117 34.8114 34.05 34.1195 34.7418C33.4277 35.4336 32.4895 35.8222 31.5111 35.8222H9.37778L2 43.2V13.6889C2 12.7105 2.38865 11.7723 3.08045 11.0805C3.77225 10.3886 4.71053 10 5.68889 10H31.5111C32.4895 10 33.4277 10.3886 34.1195 11.0805C34.8114 11.7723 35.2 12.7105 35.2 13.6889V32.1333Z" stroke="#595959" stroke-width="3.68889" stroke-linecap="round" stroke-linejoin="round"/>
<defs>
<filter id="filter0_d_224_2593" x="45.242" y="10.3659" width="133.154" height="36.1867" filterUnits="userSpaceOnUse" color-interpolation-filters="sRGB">
<feFlood flood-opacity="0" result="BackgroundImageFix"/>
<feColorMatrix in="SourceAlpha" type="matrix" values="0 0 0 0 0 0 0 0 0 0 0 0 0 0 0 0 0 0 127 0" result="hardAlpha"/>
<feOffset dy="2.76667"/>
<feColorMatrix type="matrix" values="0 0 0 0 1 0 0 0 0 1 0 0 0 0 1 0 0 0 1 0"/>
<feBlend mode="normal" in2="BackgroundImageFix" result="effect1_dropShadow_224_2593"/>
<feBlend mode="normal" in="SourceGraphic" in2="effect1_dropShadow_224_2593" result="shape"/>
</filter>
</defs>
</svg>
