<svg width="25" height="19" viewBox="0 0 25 19" fill="none" xmlns="http://www.w3.org/2000/svg">
<path d="M0.212851 3.56415C0.324742 1.77464 1.70969 0.372201 3.4338 0.283466C5.93042 0.154972 9.49883 0 12.1875 0C14.8762 0 18.4446 0.154972 20.9412 0.283466C22.6653 0.372201 24.0503 1.77464 24.1621 3.56415C24.2693 5.27864 24.375 7.38826 24.375 9.04353C24.375 10.6988 24.2693 12.8084 24.1621 14.5229C24.0503 16.3124 22.6653 17.7149 20.9412 17.8036C18.4446 17.9321 14.8762 18.0871 12.1875 18.0871C9.49883 18.0871 5.93043 17.9321 3.4338 17.8036C1.70969 17.7149 0.324742 16.3124 0.212851 14.5229C0.105652 12.8084 0 10.6988 0 9.04353C0 7.38826 0.105652 5.27864 0.212851 3.56415Z" fill="white"/>
<path d="M9.5759 5.42615V12.661L16.5402 9.04356L9.5759 5.42615Z" fill="#5766F5"/>
</svg>
